<svg width="128" height="128" viewBox="0 0 128 128" fill="none" xmlns="http://www.w3.org/2000/svg">
<rect width="128" height="128" rx="20" fill="#00A3FF"/>
<path d="M31.76 54.84C32.6933 51.7133 33.44 49.31 34 47.63C34.6067 45.9033 35.19 44.3633 35.75 43.01C36.31 41.6567 36.94 40.35 37.64 39.09C38.3867 37.83 39.18 36.6867 40.02 35.66C40.9067 34.5867 41.84 33.7467 42.82 33.14C43.8 32.5333 44.8267 32.23 45.9 32.23C46.9733 32.23 48.0933 32.65 49.26 33.49C51.1267 38.1567 52.27 41.2833 52.69 42.87C53.25 45.2033 53.7633 48.4933 54.23 52.74C54.65 51.6667 55.1167 50.5467 55.63 49.38C56.19 48.1667 56.7267 46.9533 57.24 45.74C58.6867 42.66 59.5967 40.3267 59.97 38.74C60.9967 35.4733 63.12 33.0233 66.34 31.39C69.14 29.99 71.7533 29.5467 74.18 30.06C75.16 30.2467 75.8367 30.6433 76.21 31.25C76.63 31.8567 76.63 32.4867 76.21 33.14C75.8367 33.7933 75.6967 34.4233 75.79 35.03C75.93 35.59 76.0467 36.2667 76.14 37.06C76.28 39.2067 75.9067 41.12 75.02 42.8C74.1333 44.4333 73.2233 46.4867 72.29 48.96C71.3567 51.3867 70.4 53.9767 69.42 56.73C68.4867 59.4833 67.53 62.2833 66.55 65.13C65.57 67.9767 64.6133 70.5667 63.68 72.9C61.6267 78.2667 59.9467 81.23 58.64 81.79C56.8667 82.8633 55.56 83.4933 54.72 83.68C53.6467 83.8667 52.13 83.8667 50.17 83.68C48.9567 83.5867 47.9067 82.0233 47.02 78.99C46.5067 77.3567 46.04 75.0933 45.62 72.2C44.8733 67.16 44.36 64.3833 44.08 63.87C42.2133 69.9367 40.8833 73.7633 40.09 75.35C39.3433 76.9367 38.76 77.9867 38.34 78.5C37.9667 79.0133 37.5 79.69 36.94 80.53C36.3333 82.21 34.8867 83.4467 32.6 84.24C30.64 84.9867 28.8667 85.1033 27.28 84.59C25.5533 84.03 25.04 82.9567 25.74 81.37C26.2533 75.77 28.26 66.9267 31.76 54.84Z" fill="white"/>
<path d="M67.52 61.58C67.5667 59.6667 67.4267 58.1033 67.1 56.89C66.7733 55.6767 66.7733 54.6733 67.1 53.88C67.4733 53.04 68.0333 52.4567 68.78 52.13C69.5733 51.8033 70.4833 51.71 71.51 51.85C72.5833 51.9433 73.6333 52.2467 74.66 52.76C77.1333 53.88 78.86 55.4667 79.84 57.52C80.0733 58.5467 79.98 59.83 79.56 61.37C79.1867 62.8633 78.7433 64.4267 78.23 66.06C77.7167 67.6467 77.2267 69.21 76.76 70.75C76.2933 72.2433 76.1067 73.5033 76.2 74.53C77.4133 73.7833 78.4633 72.6633 79.35 71.17C80.2833 69.6767 81.1233 68.09 81.87 66.41C82.6633 64.6833 83.3867 62.98 84.04 61.3C84.74 59.62 85.3933 58.29 86 57.31C86.6533 56.33 87.1667 55.56 87.54 55C87.9133 54.3933 88.2867 53.8567 88.66 53.39C89.2667 52.5967 90.06 51.8267 91.04 51.08C91.32 50.8467 92.16 50.8933 93.56 51.22C95.0067 51.5 96.0567 51.71 96.71 51.85C97.41 51.9433 97.8767 51.8967 98.11 51.71L99.09 51.01C100.397 50.3567 101.937 50.38 103.71 51.08C105.437 51.8267 106.347 52.97 106.44 54.51C106.393 54.5567 106.37 54.65 106.37 54.79L106.58 54.86L106.09 55.28C105.763 55.8867 105.507 56.3067 105.32 56.54C105.18 56.7267 104.853 57.03 104.34 57.45C101.167 60.8567 97.5267 67.18 93.42 76.42C92.3933 78.7067 91.46 80.76 90.62 82.58C91.88 83.3733 92.8367 84.4 93.49 85.66C94.1433 86.92 94.1433 88.2967 93.49 89.79C89.6167 92.87 87.4467 95.7633 86.98 98.47C86.7467 100.15 86.4433 101.34 86.07 102.04C85.7433 102.74 85.2067 103.417 84.46 104.07C81.94 105.937 78.9767 105.47 75.57 102.67C73.1433 100.243 73.0267 97.21 75.22 93.57C75.78 92.59 76.3167 91.5633 76.83 90.49C77.5767 88.9033 78.7667 86.5467 80.4 83.42C76.3867 85.7533 72.7 85.7067 69.34 83.28C66.96 81.46 66.12 77.33 66.82 70.89C67.2867 66.5967 67.52 63.4933 67.52 61.58Z" fill="white"/>
</svg>
